<svg version="1.1" id="Layer_1" xmlns="http://www.w3.org/2000/svg" xmlns:xlink="http://www.w3.org/1999/xlink" x="0px" y="0px"
	 width="100%" viewBox="0 0 1278 1277" enable-background="new 0 0 1278 1277" xml:space="preserve">
<path fill="#333333" opacity="1.000000" stroke="none" 
	d="
M533.000000,1278.000000 
	C355.690094,1278.000000 178.380203,1278.000000 1.035150,1278.000000 
	C1.035150,852.413025 1.035150,426.826019 1.035150,1.000000 
	C425.030884,1.000000 849.061829,1.000000 1273.935181,1.185294 
	C1273.015259,2.818608 1271.365234,4.436898 1269.471680,5.686099 
	C1259.476562,12.279874 1249.407837,18.761618 1239.387085,25.316538 
	C1137.250977,92.127129 1035.126099,158.954926 932.984314,225.756821 
	C828.889282,293.836182 724.777588,361.890076 620.675781,429.958954 
	C577.171814,458.404785 533.672119,486.857147 490.174622,515.312866 
	C455.699066,537.866577 421.232971,560.434570 386.757202,582.987976 
	C346.684906,609.202454 306.606659,635.407837 266.531067,661.617310 
	C248.316513,673.529602 230.102188,685.442200 211.677292,697.492310 
	C212.517014,698.466125 213.137009,699.225708 213.798798,699.946899 
	C263.080261,753.648560 312.771606,806.981201 361.534668,861.149536 
	C409.871033,914.843689 457.536163,969.150085 504.963806,1023.650757 
	C526.389038,1048.271118 545.904053,1074.459106 561.082581,1103.558960 
	C570.425537,1121.470825 577.206360,1140.157104 579.154785,1160.523682 
	C580.292908,1172.421265 580.616455,1184.150146 578.017151,1195.832153 
	C576.102356,1204.437378 573.923767,1212.984009 571.533569,1221.597290 
	C568.977539,1226.435425 566.918701,1231.319702 564.493225,1236.014648 
	C556.356018,1251.766235 545.091675,1265.199707 533.000000,1278.000000 
z"/>
<path fill="#E5E3D1" opacity="1.000000" stroke="none" 
	d="
M533.468628,1278.000000 
	C545.091675,1265.199707 556.356018,1251.766235 564.493225,1236.014648 
	C566.918701,1231.319702 568.977539,1226.435425 571.721130,1221.288574 
	C573.198914,1219.593750 574.276184,1218.315674 575.103516,1216.892212 
	C586.318909,1197.596680 597.501038,1178.281738 608.688354,1158.969849 
	C634.902832,1113.717896 661.136047,1068.476685 687.323975,1023.209351 
	C718.766418,968.859070 750.151123,914.475281 781.595764,860.126282 
	C807.785522,814.859802 834.041626,769.631775 860.239075,724.369690 
	C888.272034,675.936401 916.263306,627.478943 944.286560,579.040039 
	C970.308289,534.060913 996.356262,489.097015 1022.377930,444.117950 
	C1050.317749,395.823425 1078.227417,347.511353 1106.174561,299.221130 
	C1130.868530,256.552277 1155.612183,213.912109 1180.304932,171.242523 
	C1208.250977,122.951233 1236.190796,74.656448 1264.067505,26.325134 
	C1268.880371,17.980722 1273.364136,9.446532 1278.000000,0.999987 
	C1278.333374,1.166530 1278.943726,1.315671 1278.955444,1.502446 
	C1279.038940,2.830275 1279.000000,4.165766 1279.000000,5.498812 
	C1279.000000,429.573822 1279.000000,853.648865 1279.000000,1278.000000 
	C1030.645874,1278.000000 782.291565,1278.000000 533.468628,1278.000000 
z"/>
<path fill="#FFFFFF" opacity="1.000000" stroke="none" 
	d="
M1277.600098,1.000002 
	C1273.364136,9.446532 1268.880371,17.980722 1264.067505,26.325134 
	C1236.190796,74.656448 1208.250977,122.951233 1180.304932,171.242523 
	C1155.612183,213.912109 1130.868530,256.552277 1106.174561,299.221130 
	C1078.227417,347.511353 1050.317749,395.823425 1022.377930,444.117950 
	C996.356262,489.097015 970.308289,534.060913 944.286560,579.040039 
	C916.263306,627.478943 888.272034,675.936401 860.239075,724.369690 
	C834.041626,769.631775 807.785522,814.859802 781.595764,860.126282 
	C750.151123,914.475281 718.766418,968.859070 687.323975,1023.209351 
	C661.136047,1068.476685 634.902832,1113.717896 608.688354,1158.969849 
	C597.501038,1178.281738 586.318909,1197.596680 575.103516,1216.892212 
	C574.276184,1218.315674 573.198914,1219.593750 572.050293,1221.248047 
	C573.923767,1212.984009 576.102356,1204.437378 578.017151,1195.832153 
	C580.616455,1184.150146 580.292908,1172.421265 579.154785,1160.523682 
	C577.206360,1140.157104 570.425537,1121.470825 561.082581,1103.558960 
	C545.904053,1074.459106 526.389038,1048.271118 504.963806,1023.650757 
	C457.536163,969.150085 409.871033,914.843689 361.534668,861.149536 
	C312.771606,806.981201 263.080261,753.648560 213.798798,699.946899 
	C213.137009,699.225708 212.517014,698.466125 211.677292,697.492310 
	C230.102188,685.442200 248.316513,673.529602 266.531067,661.617310 
	C306.606659,635.407837 346.684906,609.202454 386.757202,582.987976 
	C421.232971,560.434570 455.699066,537.866577 490.174622,515.312866 
	C533.672119,486.857147 577.171814,458.404785 620.675781,429.958954 
	C724.777588,361.890076 828.889282,293.836182 932.984314,225.756821 
	C1035.126099,158.954926 1137.250977,92.127129 1239.387085,25.316538 
	C1249.407837,18.761618 1259.476562,12.279874 1269.471680,5.686099 
	C1271.365234,4.436898 1273.015259,2.818608 1274.388794,1.185294 
	C1275.066650,1.000000 1276.133423,1.000000 1277.600098,1.000002 
z"/>
</svg>